<svg xmlns="http://www.w3.org/2000/svg" viewBox="0 0 800 500" fill="none"><defs><linearGradient id="g" x1="140" y1="80" x2="670" y2="420"><stop stop-color="#53a7ff"/><stop offset=".52" stop-color="#bf91ff"/><stop offset="1" stop-color="#ff5678"/></linearGradient><filter id="b"><feGaussianBlur stdDeviation="13"/></filter></defs><g opacity=".72"><path d="M400 70l150 55v125c0 105-75 160-150 190-75-30-150-85-150-190V125l150-55Z" stroke="url(#g)" stroke-width="7"/><rect x="340" y="215" width="120" height="90" rx="12" stroke="#53a7ff" stroke-width="6"/><path d="M370 215v-35c0-30 25-55 55-55s55 25 55 55v35" stroke="#bf91ff" stroke-width="6"/><circle cx="400" cy="258" r="12" fill="#38ddd4"/><path d="M400 270v22" stroke="#38ddd4" stroke-width="6"/><path d="M110 180h105M585 145h105M145 375h100M560 360h110" stroke="#53a7ff" stroke-opacity=".45" stroke-width="3"/><circle cx="105" cy="180" r="7" fill="#53a7ff"/><circle cx="690" cy="145" r="7" fill="#ff5678"/><circle cx="245" cy="375" r="7" fill="#bf91ff"/><circle cx="675" cy="360" r="7" fill="#38ddd4"/><path d="M105 180L245 375M690 145L560 360M105 180L250 140M690 145L545 110" stroke="url(#g)" stroke-opacity=".45" stroke-width="2"/><g filter="url(#b)" opacity=".35"><circle cx="400" cy="245" r="105" fill="#53a7ff"/><circle cx="400" cy="245" r="70" fill="#bf91ff"/></g></g></svg>